<svg width="1011" height="1887" viewBox="0 0 1011 1887" fill="none" xmlns="http://www.w3.org/2000/svg">
<path d="M779.688 1884C778.481 1858.84 757.689 1838.81 732.221 1838.81C706.754 1838.81 685.963 1858.84 684.755 1884H630.387C628.793 1816.42 573.488 1762.13 505.5 1762.13C437.512 1762.13 382.207 1816.42 380.613 1884H324.875C323.668 1858.84 302.876 1838.81 277.409 1838.81C251.941 1838.81 231.15 1858.84 229.942 1884H163.225C162.017 1858.84 141.226 1838.81 115.758 1838.81C90.2898 1838.81 69.4991 1858.84 68.2912 1884H3V3H68.2912C69.4992 28.1618 90.2898 48.1894 115.758 48.1894C141.226 48.1894 162.017 28.1618 163.225 3H229.942C231.15 28.1618 251.941 48.1894 277.409 48.1894C302.876 48.1894 323.667 28.1618 324.875 3H380.613C382.207 70.5813 437.512 124.874 505.5 124.874C573.488 124.874 628.793 70.5813 630.387 3H684.755C685.963 28.1618 706.754 48.1894 732.221 48.1894C757.689 48.1894 778.48 28.1618 779.688 3H846.405C847.613 28.1618 868.404 48.1894 893.872 48.1894C919.34 48.1894 940.131 28.1618 941.339 3H1008V1884H941.339C940.131 1858.84 919.34 1838.81 893.872 1838.81C868.404 1838.81 847.613 1858.84 846.405 1884H779.688Z" fill="white" stroke="black" stroke-width="6"/>
</svg>
