<svg width="934" height="1743" viewBox="0 0 934 1743" fill="none" xmlns="http://www.w3.org/2000/svg">
<path fill-rule="evenodd" clip-rule="evenodd" d="M148.073 0.632438C148.073 23.3361 129.658 41.7409 106.942 41.7409C84.2254 41.7409 65.8103 23.3361 65.8103 0.632438C65.8103 0.421249 65.8119 0.210434 65.8151 0H0V1743H65.8151C65.8119 1742.78 65.8103 1742.58 65.8103 1742.37C65.8103 1719.66 84.2254 1701.26 106.942 1701.26C129.658 1701.26 148.073 1719.66 148.073 1742.37C148.073 1742.58 148.072 1742.78 148.068 1743H215.154C215.15 1742.78 215.149 1742.58 215.149 1742.37C215.149 1719.66 233.565 1701.26 256.28 1701.26C278.996 1701.26 297.412 1719.66 297.412 1742.37V1742.47L297.411 1742.67L297.409 1742.78L297.407 1743H354.363C354.363 1680.83 404.793 1630.43 467 1630.43C529.207 1630.43 579.637 1680.83 579.637 1743H635.328C635.324 1742.78 635.323 1742.58 635.323 1742.37C635.323 1719.66 653.738 1701.26 676.454 1701.26C699.17 1701.26 717.585 1719.66 717.585 1742.37C717.585 1742.58 717.584 1742.78 717.58 1743H784.666C784.665 1742.89 784.664 1742.78 784.662 1742.67C784.661 1742.57 784.661 1742.47 784.661 1742.37C784.661 1719.66 803.077 1701.26 825.793 1701.26C848.509 1701.26 866.924 1719.66 866.924 1742.37C866.924 1742.58 866.923 1742.78 866.919 1743H934V0H866.919C866.923 0.210434 866.924 0.421249 866.924 0.632438C866.924 23.3361 848.509 41.7409 825.793 41.7409C803.077 41.7409 784.661 23.3361 784.661 0.632438C784.661 0.421249 784.663 0.210434 784.666 0H717.58C717.584 0.210434 717.585 0.421249 717.585 0.632438C717.585 23.3361 699.17 41.7409 676.454 41.7409C653.738 41.7409 635.323 23.3361 635.323 0.632438C635.323 0.421249 635.324 0.210434 635.328 0H579.637C579.637 62.1729 529.207 112.574 467 112.574C404.793 112.574 354.363 62.1729 354.363 0H297.407C297.411 0.210434 297.412 0.421249 297.412 0.632438C297.412 23.3361 278.996 41.7409 256.28 41.7409C233.565 41.7409 215.149 23.3361 215.149 0.632438C215.149 0.421249 215.15 0.210434 215.154 0H148.068C148.072 0.210434 148.073 0.421249 148.073 0.632438Z" fill="white"/>
</svg>
