<svg width="934" height="1743" viewBox="0 0 934 1743" fill="none" xmlns="http://www.w3.org/2000/svg">
<path d="M720.523 1740C719.292 1716.74 700.031 1698.26 676.454 1698.26C652.877 1698.26 633.616 1716.74 632.385 1740H582.599C581.007 1677.56 529.859 1627.43 467 1627.43C404.141 1627.43 352.993 1677.56 351.401 1740H300.349C299.119 1716.74 279.857 1698.26 256.28 1698.26C232.704 1698.26 213.442 1716.74 212.212 1740H151.011C149.78 1716.74 130.518 1698.26 106.942 1698.26C83.3647 1698.26 64.1036 1716.74 62.8728 1740H3V3H62.8728C64.1037 26.2611 83.3647 44.7409 106.942 44.7409C130.518 44.7409 149.78 26.2611 151.011 3H212.212C213.442 26.2611 232.704 44.7409 256.28 44.7409C279.857 44.7409 299.119 26.2611 300.349 3H351.401C352.993 65.4447 404.141 115.574 467 115.574C529.859 115.574 581.007 65.4447 582.599 3H632.385C633.616 26.2611 652.877 44.7409 676.454 44.7409C700.031 44.7409 719.292 26.2611 720.523 3H781.724C782.955 26.2611 802.216 44.7409 825.793 44.7409C849.369 44.7409 868.631 26.2611 869.862 3H931V1740H869.862C868.631 1716.74 849.369 1698.26 825.793 1698.26C802.216 1698.26 782.955 1716.74 781.724 1740H720.523Z" fill="white" stroke="black" stroke-width="6"/>
</svg>
