<svg width="934" height="1537" viewBox="0 0 934 1537" fill="none" xmlns="http://www.w3.org/2000/svg">
<path fill-rule="evenodd" clip-rule="evenodd" d="M930.845 1519.1C934 1512.09 934 1502.91 934 1484.56V1181.22C911.179 1181.22 892.68 1160.27 892.68 1134.43C892.68 1108.59 911.179 1087.64 934 1087.64L934 52.443C934 34.088 934 24.9104 930.845 17.8985C928.07 11.7295 923.642 6.71929 918.195 3.57037C912.004 3.95934e-05 903.898 -5.78531e-05 887.687 -5.78531e-05H46.3129C30.1023 -5.78531e-05 21.9965 3.95934e-05 15.8043 3.57037C10.3584 6.71929 5.92967 11.7295 3.15503 17.8985C-3.74317e-05 24.9104 0 34.088 0 52.443L0 1087.64C22.8205 1087.64 41.3208 1108.59 41.3208 1134.43C41.3208 1160.27 22.8205 1181.22 0 1181.22V1484.56C0 1502.91 -3.74317e-05 1512.09 3.15503 1519.1C5.92967 1525.27 10.3584 1530.29 15.8043 1533.43C21.9965 1537 30.1023 1537 46.3129 1537H887.687C903.898 1537 912.004 1537 918.195 1533.43C923.642 1530.29 928.07 1525.27 930.845 1519.1ZM811.106 1107.95C798.189 1107.95 787.717 1119.8 787.717 1134.43C787.717 1149.06 798.189 1160.92 811.106 1160.92C824.024 1160.92 834.496 1149.06 834.496 1134.43C834.496 1119.8 824.024 1107.95 811.106 1107.95ZM705.568 1134.43C705.568 1119.8 716.039 1107.95 728.957 1107.95C741.874 1107.95 752.346 1119.8 752.346 1134.43C752.346 1149.06 741.874 1160.92 728.957 1160.92C716.039 1160.92 705.568 1149.06 705.568 1134.43ZM641.637 1107.95C628.72 1107.95 618.249 1119.8 618.249 1134.43C618.249 1149.06 628.72 1160.92 641.637 1160.92C654.555 1160.92 665.026 1149.06 665.026 1134.43C665.026 1119.8 654.555 1107.95 641.637 1107.95ZM530.93 1134.43C530.93 1119.8 541.402 1107.95 554.319 1107.95C567.237 1107.95 577.708 1119.8 577.708 1134.43C577.708 1149.06 567.237 1160.92 554.319 1160.92C541.402 1160.92 530.93 1149.06 530.93 1134.43ZM467.001 1107.95C454.083 1107.95 443.611 1119.8 443.611 1134.43C443.611 1149.06 454.083 1160.92 467.001 1160.92C479.917 1160.92 490.389 1149.06 490.389 1134.43C490.389 1119.8 479.917 1107.95 467.001 1107.95ZM356.292 1134.43C356.292 1119.8 366.764 1107.95 379.681 1107.95C392.599 1107.95 403.07 1119.8 403.07 1134.43C403.07 1149.06 392.599 1160.92 379.681 1160.92C366.764 1160.92 356.292 1149.06 356.292 1134.43ZM292.363 1107.95C279.445 1107.95 268.974 1119.8 268.974 1134.43C268.974 1149.06 279.445 1160.92 292.363 1160.92C305.28 1160.92 315.752 1149.06 315.752 1134.43C315.752 1119.8 305.28 1107.95 292.363 1107.95ZM181.655 1134.43C181.655 1119.8 192.126 1107.95 205.043 1107.95C217.961 1107.95 228.432 1119.8 228.432 1134.43C228.432 1149.06 217.961 1160.92 205.043 1160.92C192.126 1160.92 181.655 1149.06 181.655 1134.43ZM117.725 1107.95C104.807 1107.95 94.3357 1119.8 94.3357 1134.43C94.3357 1149.06 104.807 1160.92 117.725 1160.92C130.642 1160.92 141.114 1149.06 141.114 1134.43C141.114 1119.8 130.642 1107.95 117.725 1107.95Z" fill="white"/>
</svg>
